<svg viewBox="0 0 80 100" fill="currentColor">
  <g transform="translate(409.04 416.75)">
    <path d="m-381.27-318.25c0.56365-11.871-2.0793-21.922-10.589-31.224 6.4388-9.4956 11.824-45.295 9.9427-61.143-0.71219-5.998 4.62-4.7018 9.8048-4.0343 0 0 6.3357 0.62595 8.9666 2.2268 2.3693 1.4417 5.5276 4.0719 5.4924 6.2501-0.39386 24.37 3.6947 43.529 9.2664 62.661-6.7355 7.8632-9.5651 16.284-8.4889 25.264z"/><path d="m-397.18-404.09c-0.11492 6e-3 -0.22901 0.0183-0.34155 0.0377-0.95085 0.16414-1.8863 0.77377-2.4324 1.5693-0.36291 0.52862-0.53726 1.2586-0.39233 1.8832 0.59903 2.5817 0.23542 8.1584 0.23542 8.6313s0.36361 6.0495-0.23542 8.6312c-0.14493 0.62461 0.0294 1.3545 0.39233 1.8832 0.54612 0.7955 1.4816 1.4052 2.4324 1.5694 0.90026 0.1554 1.8972-0.13717 2.6678-0.6277 0.53415-0.33997 1.0484-0.87096 1.177-1.4909 0.46602-2.2457 2.7878-4.2904 5.0876-5.7027 2.2998-1.4123 4.1849-1.9085 4.9561-1.9085 0.0573-1.5696 0.0261-3.1383 0-4.7079-0.77116 0-2.6563-0.4962-4.9561-1.9085-2.2998-1.4123-4.6216-3.457-5.0876-5.7027-0.12864-0.61994-0.64287-1.1509-1.177-1.4909-0.67436-0.4292-1.5218-0.70688-2.3263-0.66548z"/><path d="m-402.8-373.78c-0.11492 6e-3 -0.22901 0.0183-0.34155 0.0377-0.95085 0.16414-1.8863 0.77377-2.4324 1.5693-0.36291 0.52862-0.53726 1.2586-0.39234 1.8832 0.59904 2.5817 0.23543 8.1584 0.23543 8.6313s0.36361 6.0495-0.23543 8.6312c-0.14492 0.62461 0.0294 1.3545 0.39234 1.8832 0.54612 0.7955 1.4816 1.4052 2.4324 1.5694 0.90026 0.1554 1.8972-0.13717 2.6678-0.6277 0.53415-0.33997 1.0484-0.87096 1.177-1.4909 0.46601-2.2457 2.7878-4.2904 5.0876-5.7027 2.2998-1.4123 4.1849-1.9085 4.9561-1.9085 0.0573-1.5696 0.0261-3.1383 0-4.7079-0.77116 0-2.6563-0.4962-4.9561-1.9085-2.2998-1.4123-4.6216-3.457-5.0876-5.7027-0.12864-0.61994-0.64287-1.1509-1.177-1.4909-0.67436-0.4292-1.5218-0.70688-2.3263-0.66548z"/><path d="m-342.03-404.09c0.11492 6e-3 0.22901 0.0183 0.34155 0.0377 0.95085 0.16414 1.8863 0.77377 2.4324 1.5693 0.36291 0.52862 0.53726 1.2586 0.39234 1.8832-0.59904 2.5817-0.23543 8.1584-0.23543 8.6313s-0.36361 6.0495 0.23543 8.6312c0.14492 0.62461-0.0294 1.3545-0.39234 1.8832-0.54612 0.7955-1.4816 1.4052-2.4324 1.5694-0.90026 0.1554-1.8972-0.13717-2.6678-0.6277-0.53415-0.33997-1.0484-0.87096-1.177-1.4909-0.46602-2.2457-2.7878-4.2904-5.0876-5.7027-2.2998-1.4123-4.1849-1.9085-4.9561-1.9085-0.0573-1.5696-0.0261-3.1383 0-4.7079 0.77116 0 2.6563-0.4962 4.9561-1.9085 2.2998-1.4123 4.6216-3.457 5.0876-5.7027 0.12864-0.61994 0.64287-1.1509 1.177-1.4909 0.67436-0.4292 1.5218-0.70688 2.3263-0.66548z"/><path d="m-337.52-373.78c0.11492 6e-3 0.22901 0.0183 0.34155 0.0377 0.95085 0.16414 1.8863 0.77377 2.4324 1.5693 0.36291 0.52862 0.53726 1.2586 0.39234 1.8832-0.59904 2.5817-0.23543 8.1584-0.23543 8.6313s-0.36361 6.0495 0.23543 8.6312c0.14492 0.62461-0.0294 1.3545-0.39234 1.8832-0.54612 0.7955-1.4816 1.4052-2.4324 1.5694-0.90026 0.1554-1.8972-0.13717-2.6678-0.6277-0.53415-0.33997-1.0484-0.87096-1.177-1.4909-0.46602-2.2457-2.7878-4.2904-5.0876-5.7027-2.2998-1.4123-4.1849-1.9085-4.9561-1.9085-0.0573-1.5696-0.0261-3.1383 0-4.7079 0.77116 0 2.6563-0.4962 4.9561-1.9085 2.2998-1.4123 4.6216-3.457 5.0876-5.7027 0.12864-0.61994 0.64287-1.1509 1.177-1.4909 0.67436-0.4292 1.5218-0.70688 2.3263-0.66548z"/>
  </g>
</svg>
