<svg viewBox="0 0 80 100" fill="currentColor">
  <g transform="translate(181.78 132.12)">
    <path d="m-156.05-33.261c-0.72033-7.3101-3.8562-11.148-9.4077-11.513 7.1815-17.204 9.9848-39.541 8.4098-67.011 5.5105 0 9.5112-3.1704 12.002-9.5113 10.713 3.0382 13.761-5.2184 19.192-9.9642-1.9087 38.438 2.109 68.1 10.757 82.714-6.7064 1.1841-12.064 5.7099-12.399 15.286z"/><path d="m-120.23-119.5-3.7081 4.6778v3.9931l3.7081 4.678s3.4957 0.88381 4.8491 0c1.4259-0.93122 2.054-4.678 2.054-4.678v-3.9931s-0.62815-3.7466-2.054-4.6778c-1.3533-0.8838-4.8491 0-4.8491 0z"/><path d="m-162.32-111.97 3.7081 4.6778v3.9931l-3.7081 4.678s-3.4957 0.88382-4.8491 0c-1.4259-0.93121-2.054-4.678-2.054-4.678v-3.9931s0.62815-3.7466 2.054-4.6778c1.3533-0.8838 4.8491 0 4.8491 0z"/><path d="m-162.32-96.436 3.7081 4.6778v3.9931l-3.7081 4.678s-3.4957 0.88382-4.8491 0c-1.4259-0.93121-2.054-4.678-2.054-4.678v-3.9931s0.62815-3.7466 2.054-4.6778c1.3533-0.88381 4.8491 0 4.8491 0z"/><path d="m-163.91-80.436 3.7081 4.6778v3.9931l-3.7081 4.678s-3.4958 0.88382-4.8491 0c-1.4259-0.93121-2.054-4.678-2.054-4.678v-3.9931s0.62815-3.7466 2.054-4.6778c1.3533-0.8838 4.8491 0 4.8491 0z"/><path d="m-167.61-64.436 3.7081 4.6778v3.9931l-3.7081 4.678s-3.4957 0.88382-4.8491 0c-1.4259-0.93121-2.054-4.678-2.054-4.678v-3.9931s0.62815-3.7466 2.054-4.6778c1.3533-0.8838 4.8491 0 4.8491 0z"/><path d="m-120.23-103.5-3.7081 4.6778v3.9931l3.7081 4.678s3.4958 0.88382 4.8491 0c1.4259-0.93121 2.054-4.678 2.054-4.678v-3.9931s-0.62815-3.7466-2.054-4.6778c-1.3533-0.88379-4.8491 0-4.8491 0z"/><path d="m-118.65-87.503-3.7081 4.6778v3.9931l3.7081 4.678s3.4958 0.88382 4.8491 0c1.4259-0.93121 2.054-4.678 2.054-4.678v-3.9931s-0.62816-3.7466-2.054-4.6778c-1.3533-0.8838-4.8491 0-4.8491 0z"/><path d="m-115.47-71.503-3.7081 4.6778v3.9931l3.7081 4.678s3.4957 0.88382 4.849 0c1.4259-0.93121 2.054-4.678 2.054-4.678v-3.9931s-0.62816-3.7466-2.054-4.6778c-1.3533-0.88381-4.849 0-4.849 0z"/>
  </g>
</svg>
