<svg viewBox="0 0 80 100" fill="currentColor">
  <g transform="translate(274.61 283.01)">
    <path d="m-234.61-283.01c-9.8325 4.1841-18.244 5.9473-25.013 5.4447-0.0719 25.463 1.0062 48.014 3.2344 67.655 5.6693 13.803 7.4525 18.814 6.9003 20.431l0.16168 6.469h29.434l0.16176-6.469c-0.55215-1.6171 1.2309-6.6284 6.9003-20.431 2.2282-19.641 3.3064-42.192 3.2345-67.655-6.7693 0.50257-15.181-1.2606-25.013-5.4447z"/><path d="m-202.45-269.01c-1.4988-0.0128-3.1681 0.1366-4.1412 1.1885-2.1123 2.2834-1.521 9.207-1.521 9.207s-0.59124 6.9236 1.521 9.207c1.1121 1.2022 3.1336 1.2255 4.7705 1.1753 1.5446-0.0473 3.3746-0.2492 4.4247-1.3828 2.0922-2.2583 2.0742-8.9996 2.0742-8.9996s0.018-6.7412-2.0742-8.9996c-1.0502-1.1336-2.8802-1.3354-4.4247-1.3828-0.20462-6e-3 -0.41526-0.0115-0.62936-0.0133z"/><path d="m-202.45-243.01c-1.4987-0.0128-3.1681 0.13661-4.1412 1.1885-2.1122 2.2834-1.521 9.207-1.521 9.207s-0.59124 6.9236 1.521 9.207c1.1121 1.2022 3.1336 1.2255 4.7706 1.1753 1.5445-0.0473 3.3746-0.24919 4.4247-1.3828 2.0921-2.2583 2.0742-8.9996 2.0742-8.9996s0.018-6.7412-2.0742-8.9996c-1.0502-1.1336-2.8802-1.3354-4.4247-1.3828-0.20462-6e-3 -0.41526-0.0115-0.62936-0.0132z"/><path d="m-266.77-243.01c1.4988-0.0128 3.1681 0.13659 4.1412 1.1885 2.1123 2.2834 1.521 9.207 1.521 9.207s0.59124 6.9236-1.521 9.207c-1.1121 1.2022-3.1336 1.2255-4.7705 1.1753-1.5446-0.0473-3.3746-0.24918-4.4247-1.3828-2.0922-2.2584-2.0742-8.9996-2.0742-8.9996s-0.018-6.7412 2.0742-8.9996c1.0502-1.1336 2.8802-1.3354 4.4247-1.3828 0.20462-6e-3 0.41525-0.0116 0.62935-0.0132z"/><path d="m-266.77-269.01c1.4988-0.0128 3.1681 0.1366 4.1412 1.1885 2.1123 2.2834 1.521 9.207 1.521 9.207s0.59124 6.9236-1.521 9.207c-1.1121 1.2022-3.1336 1.2255-4.7705 1.1753-1.5446-0.0473-3.3746-0.24918-4.4247-1.3828-2.0922-2.2583-2.0742-8.9996-2.0742-8.9996s-0.018-6.7412 2.0742-8.9996c1.0502-1.1336 2.8802-1.3354 4.4247-1.3828 0.20462-6e-3 0.41525-0.0116 0.62935-0.0132z"/>
  </g>
</svg>
