<?xml version="1.0" encoding="UTF-8" standalone="no"?>
<!-- Created with Inkscape (http://www.inkscape.org/) -->

<svg
   width="80mm"
   height="100.00001mm"
   viewBox="0 0 80 100.00001"
   version="1.1"
   id="svg1"
   xml:space="preserve"
   inkscape:version="1.4 (86a8ad7, 2024-10-11)"
   sodipodi:docname="bass.svg"
   xmlns:inkscape="http://www.inkscape.org/namespaces/inkscape"
   xmlns:sodipodi="http://sodipodi.sourceforge.net/DTD/sodipodi-0.dtd"
   xmlns="http://www.w3.org/2000/svg"
   xmlns:svg="http://www.w3.org/2000/svg"><sodipodi:namedview
     id="namedview1"
     pagecolor="#505050"
     bordercolor="#eeeeee"
     borderopacity="1"
     inkscape:showpageshadow="0"
     inkscape:pageopacity="0"
     inkscape:pagecheckerboard="0"
     inkscape:deskcolor="#505050"
     inkscape:document-units="mm"
     showguides="true"
     inkscape:zoom="2.1351874"
     inkscape:cx="203.26085"
     inkscape:cy="168.83764"
     inkscape:window-width="1920"
     inkscape:window-height="1009"
     inkscape:window-x="-8"
     inkscape:window-y="-8"
     inkscape:window-maximized="1"
     inkscape:current-layer="layer1"><sodipodi:guide
       position="671.07509,-668.11458"
       orientation="0,-1"
       id="guide1"
       inkscape:locked="false" /></sodipodi:namedview><defs
     id="defs1" /><g
     inkscape:label="Layer 1"
     inkscape:groupmode="layer"
     id="layer1"
     transform="translate(409.03791,416.75026)"><path
       style="fill:#000000;fill-opacity:1;stroke:#fefefe;stroke-width:0"
       d="m -381.61244,-316.75026 c 0.58109,-12.23815 -2.14365,-22.60033 -10.91695,-32.1899 6.63791,-9.78922 12.19016,-46.69617 10.25023,-63.03399 -0.73422,-6.18347 4.76287,-4.84717 10.10806,-4.15908 0,0 6.53169,0.64531 9.24397,2.29567 2.44261,1.48627 5.69852,4.19787 5.66223,6.44339 -0.40604,25.12423 3.809,44.87559 9.55294,64.59889 -6.9438,8.10643 -9.86094,16.78811 -8.75141,26.04502 z"
       id="path1"
       sodipodi:nodetypes="ccscasccc" /><path
       id="path2"
       style="fill:#000000;fill-opacity:0.937413;stroke:#fefefe;stroke-width:0"
       d="m -397.48864,-405.24601 c -0.11847,0.006 -0.23609,0.0189 -0.35211,0.0389 -0.98026,0.16922 -1.94463,0.79771 -2.50764,1.61782 -0.37413,0.54497 -0.55388,1.29748 -0.40447,1.94141 0.61756,2.66158 0.24271,8.4107 0.24271,8.89827 0,0.48757 0.37485,6.2366 -0.24271,8.89818 -0.14941,0.64393 0.0303,1.39644 0.40447,1.94142 0.56301,0.8201 1.52738,1.44868 2.50764,1.61789 0.9281,0.16021 1.95582,-0.14141 2.75036,-0.64711 0.55067,-0.35048 1.0808,-0.8979 1.21342,-1.53702 0.48043,-2.31512 2.87399,-4.42304 5.24496,-5.87904 2.37096,-1.456 4.31436,-1.96756 5.10937,-1.96756 0.0591,-1.6181 0.0269,-3.23538 0,-4.85353 -0.79501,0 -2.73841,-0.51155 -5.10937,-1.96755 -2.37097,-1.456 -4.76453,-3.56392 -5.24496,-5.87905 -0.13262,-0.63912 -0.66275,-1.18654 -1.21342,-1.53702 -0.69522,-0.44248 -1.56892,-0.72874 -2.39825,-0.68606 z"
       sodipodi:nodetypes="cccszscsscsccscscc" /><path
       id="path2-8"
       style="fill:#000000;fill-opacity:0.937413;stroke:#fefefe;stroke-width:0"
       d="m -402.75512,-373.99601 c -0.11847,0.006 -0.23609,0.0189 -0.35211,0.0389 -0.98026,0.16922 -1.94463,0.79771 -2.50764,1.61782 -0.37413,0.54497 -0.55388,1.29748 -0.40447,1.94141 0.61756,2.66158 0.24271,8.4107 0.24271,8.89827 0,0.48757 0.37485,6.2366 -0.24271,8.89818 -0.14941,0.64393 0.0303,1.39644 0.40447,1.94142 0.56301,0.8201 1.52738,1.44868 2.50764,1.61789 0.9281,0.16021 1.95582,-0.14141 2.75036,-0.64711 0.55067,-0.35048 1.0808,-0.8979 1.21342,-1.53702 0.48043,-2.31512 2.87399,-4.42304 5.24496,-5.87904 2.37096,-1.456 4.31436,-1.96756 5.10937,-1.96756 0.0591,-1.6181 0.0269,-3.23538 0,-4.85353 -0.79501,0 -2.73841,-0.51155 -5.10937,-1.96755 -2.37097,-1.456 -4.76453,-3.56392 -5.24496,-5.87905 -0.13262,-0.63912 -0.66275,-1.18654 -1.21342,-1.53702 -0.69522,-0.44248 -1.56892,-0.72874 -2.39825,-0.68606 z"
       sodipodi:nodetypes="cccszscsscsccscscc" /><path
       id="path2-8-5"
       style="fill:#000000;fill-opacity:0.937413;stroke:#fefefe;stroke-width:0"
       d="m -342.2176,-405.24601 c 0.11847,0.006 0.23609,0.0189 0.35211,0.0389 0.98026,0.16922 1.94463,0.79771 2.50764,1.61782 0.37413,0.54497 0.55388,1.29748 0.40447,1.94141 -0.61756,2.66158 -0.24271,8.4107 -0.24271,8.89827 0,0.48757 -0.37485,6.2366 0.24271,8.89818 0.14941,0.64393 -0.0303,1.39644 -0.40447,1.94142 -0.56301,0.8201 -1.52738,1.44868 -2.50764,1.61789 -0.9281,0.16021 -1.95582,-0.14141 -2.75036,-0.64711 -0.55067,-0.35048 -1.0808,-0.8979 -1.21342,-1.53702 -0.48043,-2.31512 -2.87399,-4.42304 -5.24496,-5.87904 -2.37096,-1.456 -4.31436,-1.96756 -5.10937,-1.96756 -0.0591,-1.6181 -0.0269,-3.23538 0,-4.85353 0.79501,0 2.73841,-0.51155 5.10937,-1.96755 2.37097,-1.456 4.76453,-3.56392 5.24496,-5.87905 0.13262,-0.63912 0.66275,-1.18654 1.21342,-1.53702 0.69522,-0.44248 1.56892,-0.72874 2.39825,-0.68606 z"
       sodipodi:nodetypes="cccszscsscsccscscc" /><path
       id="path2-8-5-1"
       style="fill:#000000;fill-opacity:0.937413;stroke:#fefefe;stroke-width:0"
       d="m -337.5726,-373.99601 c 0.11847,0.006 0.23609,0.0189 0.35211,0.0389 0.98026,0.16922 1.94463,0.79771 2.50764,1.61782 0.37413,0.54497 0.55388,1.29748 0.40447,1.94141 -0.61756,2.66158 -0.24271,8.4107 -0.24271,8.89827 0,0.48757 -0.37485,6.2366 0.24271,8.89818 0.14941,0.64393 -0.0303,1.39644 -0.40447,1.94142 -0.56301,0.8201 -1.52738,1.44868 -2.50764,1.61789 -0.9281,0.16021 -1.95582,-0.14141 -2.75036,-0.64711 -0.55067,-0.35048 -1.0808,-0.8979 -1.21342,-1.53702 -0.48043,-2.31512 -2.87399,-4.42304 -5.24496,-5.87904 -2.37096,-1.456 -4.31436,-1.96756 -5.10937,-1.96756 -0.0591,-1.6181 -0.0269,-3.23538 0,-4.85353 0.79501,0 2.73841,-0.51155 5.10937,-1.96755 2.37097,-1.456 4.76453,-3.56392 5.24496,-5.87905 0.13262,-0.63912 0.66275,-1.18654 1.21342,-1.53702 0.69522,-0.44248 1.56892,-0.72874 2.39825,-0.68606 z"
       sodipodi:nodetypes="cccszscsscsccscscc" /></g></svg>
