<?xml version="1.0" encoding="UTF-8" standalone="no"?>
<!-- Created with Inkscape (http://www.inkscape.org/) -->

<svg
   width="80mm"
   height="100.00001mm"
   viewBox="0 0 80 100.00001"
   version="1.1"
   id="svg1"
   xml:space="preserve"
   inkscape:version="1.4 (86a8ad7, 2024-10-11)"
   sodipodi:docname="bass.svg"
   xmlns:inkscape="http://www.inkscape.org/namespaces/inkscape"
   xmlns:sodipodi="http://sodipodi.sourceforge.net/DTD/sodipodi-0.dtd"
   xmlns="http://www.w3.org/2000/svg"
   xmlns:svg="http://www.w3.org/2000/svg"><sodipodi:namedview
     id="namedview1"
     pagecolor="#505050"
     bordercolor="#eeeeee"
     borderopacity="1"
     inkscape:showpageshadow="0"
     inkscape:pageopacity="0"
     inkscape:pagecheckerboard="0"
     inkscape:deskcolor="#505050"
     inkscape:document-units="mm"
     showguides="true"
     inkscape:zoom="1.5098055"
     inkscape:cx="246.72052"
     inkscape:cy="191.08422"
     inkscape:window-width="1920"
     inkscape:window-height="1009"
     inkscape:window-x="-8"
     inkscape:window-y="-8"
     inkscape:window-maximized="1"
     inkscape:current-layer="layer1"><sodipodi:guide
       position="671.07509,-668.11458"
       orientation="0,-1"
       id="guide1"
       inkscape:locked="false" /></sodipodi:namedview><defs
     id="defs1" /><g
     inkscape:label="Layer 1"
     inkscape:groupmode="layer"
     id="layer1"
     transform="translate(409.03791,416.75026)"><path
       style="fill:#000000;fill-opacity:1;stroke:#fefefe;stroke-width:0"
       d="m -381.26898,-318.25026 c 0.56365,-11.87101 -2.07934,-21.92232 -10.58944,-31.2242 6.43877,-9.49555 11.82445,-45.29529 9.94272,-61.14297 -0.71219,-5.99797 4.61998,-4.70176 9.80482,-4.03431 0,0 6.33574,0.62595 8.96665,2.2268 2.36933,1.44168 5.52756,4.07193 5.49236,6.25009 -0.39386,24.3705 3.69473,43.52932 9.26635,62.66092 -6.73548,7.86324 -9.56511,16.28447 -8.48886,25.26367 z"
       id="path1"
       sodipodi:nodetypes="ccscasccc" /><path
       id="path2"
       style="fill:#000000;fill-opacity:0.937413;stroke:#fefefe;stroke-width:0"
       d="m -397.18219,-404.09114 c -0.11492,0.006 -0.22901,0.0183 -0.34155,0.0377 -0.95085,0.16414 -1.88629,0.77377 -2.43241,1.56928 -0.36291,0.52862 -0.53726,1.25856 -0.39233,1.88317 0.59903,2.58173 0.23542,8.15838 0.23542,8.63132 0,0.47294 0.36361,6.0495 -0.23542,8.63124 -0.14493,0.62461 0.0294,1.35454 0.39233,1.88317 0.54612,0.7955 1.48156,1.40522 2.43241,1.56936 0.90026,0.1554 1.89715,-0.13717 2.66785,-0.6277 0.53415,-0.33997 1.04838,-0.87096 1.17702,-1.49091 0.46602,-2.24567 2.78777,-4.29035 5.08761,-5.70267 2.29983,-1.41232 4.18493,-1.90853 4.95609,-1.90853 0.0573,-1.56956 0.0261,-3.13832 0,-4.70793 -0.77116,0 -2.65626,-0.4962 -4.95609,-1.90852 -2.29984,-1.41232 -4.62159,-3.457 -5.08761,-5.70268 -0.12864,-0.61994 -0.64287,-1.15094 -1.17702,-1.49091 -0.67436,-0.4292 -1.52185,-0.70688 -2.3263,-0.66548 z"
       sodipodi:nodetypes="cccszscsscsccscscc" /><path
       id="path2-8"
       style="fill:#000000;fill-opacity:0.937413;stroke:#fefefe;stroke-width:0"
       d="m -402.80397,-373.77864 c -0.11492,0.006 -0.22901,0.0183 -0.34155,0.0377 -0.95085,0.16414 -1.88629,0.77377 -2.43241,1.56928 -0.36291,0.52862 -0.53726,1.25856 -0.39234,1.88317 0.59904,2.58173 0.23543,8.15838 0.23543,8.63132 0,0.47294 0.36361,6.0495 -0.23543,8.63124 -0.14492,0.62461 0.0294,1.35454 0.39234,1.88317 0.54612,0.7955 1.48156,1.40522 2.43241,1.56936 0.90026,0.1554 1.89715,-0.13717 2.66785,-0.6277 0.53415,-0.33997 1.04838,-0.87096 1.17702,-1.49091 0.46601,-2.24567 2.78777,-4.29035 5.08761,-5.70267 2.29983,-1.41232 4.18493,-1.90853 4.95609,-1.90853 0.0573,-1.56956 0.0261,-3.13832 0,-4.70793 -0.77116,0 -2.65626,-0.4962 -4.95609,-1.90852 -2.29984,-1.41232 -4.6216,-3.457 -5.08761,-5.70268 -0.12864,-0.61994 -0.64287,-1.15094 -1.17702,-1.49091 -0.67436,-0.4292 -1.52185,-0.70688 -2.3263,-0.66548 z"
       sodipodi:nodetypes="cccszscsscsccscscc" /><path
       id="path2-8-5"
       style="fill:#000000;fill-opacity:0.937413;stroke:#fefefe;stroke-width:0"
       d="m -342.0294,-404.09114 c 0.11492,0.006 0.22901,0.0183 0.34155,0.0377 0.95085,0.16414 1.88629,0.77377 2.43241,1.56928 0.36291,0.52862 0.53726,1.25856 0.39234,1.88317 -0.59904,2.58173 -0.23543,8.15838 -0.23543,8.63132 0,0.47294 -0.36361,6.0495 0.23543,8.63124 0.14492,0.62461 -0.0294,1.35454 -0.39234,1.88317 -0.54612,0.7955 -1.48156,1.40522 -2.43241,1.56936 -0.90026,0.1554 -1.89715,-0.13717 -2.66785,-0.6277 -0.53415,-0.33997 -1.04838,-0.87096 -1.17702,-1.49091 -0.46602,-2.24567 -2.78777,-4.29035 -5.08761,-5.70267 -2.29983,-1.41232 -4.18493,-1.90853 -4.95609,-1.90853 -0.0573,-1.56956 -0.0261,-3.13832 0,-4.70793 0.77116,0 2.65626,-0.4962 4.95609,-1.90852 2.29984,-1.41232 4.62159,-3.457 5.08761,-5.70268 0.12864,-0.61994 0.64287,-1.15094 1.17702,-1.49091 0.67436,-0.4292 1.52185,-0.70688 2.3263,-0.66548 z"
       sodipodi:nodetypes="cccszscsscsccscscc" /><path
       id="path2-8-5-1"
       style="fill:#000000;fill-opacity:0.937413;stroke:#fefefe;stroke-width:0"
       d="m -337.52375,-373.77864 c 0.11492,0.006 0.22901,0.0183 0.34155,0.0377 0.95085,0.16414 1.88629,0.77377 2.43241,1.56928 0.36291,0.52862 0.53726,1.25856 0.39234,1.88317 -0.59904,2.58173 -0.23543,8.15838 -0.23543,8.63132 0,0.47294 -0.36361,6.0495 0.23543,8.63124 0.14492,0.62461 -0.0294,1.35454 -0.39234,1.88317 -0.54612,0.7955 -1.48156,1.40522 -2.43241,1.56936 -0.90026,0.1554 -1.89715,-0.13717 -2.66785,-0.6277 -0.53415,-0.33997 -1.04838,-0.87096 -1.17702,-1.49091 -0.46602,-2.24567 -2.78777,-4.29035 -5.08761,-5.70267 -2.29983,-1.41232 -4.18493,-1.90853 -4.95609,-1.90853 -0.0573,-1.56956 -0.0261,-3.13832 0,-4.70793 0.77116,0 2.65626,-0.4962 4.95609,-1.90852 2.29984,-1.41232 4.62159,-3.457 5.08761,-5.70268 0.12864,-0.61994 0.64287,-1.15094 1.17702,-1.49091 0.67436,-0.4292 1.52185,-0.70688 2.3263,-0.66548 z"
       sodipodi:nodetypes="cccszscsscsccscscc" /></g></svg>
