<?xml version="1.0" encoding="UTF-8" standalone="no"?>
<!-- Created with Inkscape (http://www.inkscape.org/) -->

<svg
   width="80mm"
   height="100.00001mm"
   viewBox="0 0 80 100.00001"
   version="1.1"
   id="svg1"
   xml:space="preserve"
   inkscape:version="1.4 (86a8ad7, 2024-10-11)"
   sodipodi:docname="bass.svg"
   xmlns:inkscape="http://www.inkscape.org/namespaces/inkscape"
   xmlns:sodipodi="http://sodipodi.sourceforge.net/DTD/sodipodi-0.dtd"
   xmlns="http://www.w3.org/2000/svg"
   xmlns:svg="http://www.w3.org/2000/svg"><sodipodi:namedview
     id="namedview1"
     pagecolor="#505050"
     bordercolor="#eeeeee"
     borderopacity="1"
     inkscape:showpageshadow="0"
     inkscape:pageopacity="0"
     inkscape:pagecheckerboard="0"
     inkscape:deskcolor="#505050"
     inkscape:document-units="mm"
     showguides="true"
     inkscape:zoom="1.0675937"
     inkscape:cx="287.09424"
     inkscape:cy="264.61378"
     inkscape:window-width="1920"
     inkscape:window-height="1009"
     inkscape:window-x="-8"
     inkscape:window-y="-8"
     inkscape:window-maximized="1"
     inkscape:current-layer="layer1"><sodipodi:guide
       position="671.07509,-668.11458"
       orientation="0,-1"
       id="guide1"
       inkscape:locked="false" /></sodipodi:namedview><defs
     id="defs1" /><g
     inkscape:label="Layer 1"
     inkscape:groupmode="layer"
     id="layer1"
     transform="translate(409.03791,416.75026)"><path
       style="fill:#000000;fill-opacity:1;stroke:#fefefe;stroke-width:0"
       d="m -379.95523,-316.75026 c 0.58109,-12.23815 -2.14365,-22.60033 -10.91695,-32.1899 6.63791,-9.78922 12.19016,-46.69617 10.25023,-63.03399 -0.73422,-6.18347 4.76287,-4.84717 10.10806,-4.15908 0,0 6.53169,0.64531 9.24397,2.29567 2.44261,1.48627 5.69852,4.19787 5.66223,6.44339 -0.40604,25.12423 3.809,44.87559 9.55294,64.59889 -6.9438,8.10643 -9.86094,16.78811 -8.75141,26.04502 z"
       id="path1"
       sodipodi:nodetypes="ccscasccc" /><path
       id="path2"
       style="fill:#000000;fill-opacity:0.937413;stroke:#fefefe;stroke-width:0"
       d="m -395.83143,-405.24601 c -0.11847,0.006 -0.23609,0.0189 -0.35211,0.0389 -0.98026,0.16922 -1.94463,0.79771 -2.50764,1.61782 -0.37413,0.54497 -0.55388,1.29748 -0.40447,1.94141 0.61756,2.66158 0.70526,8.74408 0.24271,8.89827 0.46255,0.15418 0.37485,6.2366 -0.24271,8.89818 -0.14941,0.64393 0.0303,1.39644 0.40447,1.94142 0.56301,0.8201 1.52738,1.44868 2.50764,1.61789 0.9281,0.16021 1.95582,-0.14141 2.75036,-0.64711 0.55067,-0.35048 1.0808,-0.8979 1.21342,-1.53702 0.96086,-4.63025 9.57425,-8.43166 10.35433,-7.8466 l 0.0404,-2.42676 -0.0404,-2.42677 c -0.78008,0.58506 -9.39347,-3.21634 -10.35433,-7.8466 -0.13262,-0.63912 -0.66275,-1.18654 -1.21342,-1.53702 -0.69522,-0.44248 -1.56892,-0.72874 -2.39825,-0.68606 z" /><path
       id="path2-2"
       style="fill:#000000;fill-opacity:0.937413;stroke:#fefefe;stroke-width:0"
       d="m -401.09812,-373.99601 c -0.11848,0.006 -0.2361,0.0189 -0.35211,0.0389 -0.98026,0.16922 -1.94463,0.79771 -2.50764,1.61782 -0.37413,0.54497 -0.55389,1.29748 -0.40447,1.94141 0.61756,2.66158 0.70526,8.74408 0.24271,8.89827 0.46255,0.15418 0.37485,6.2366 -0.24271,8.89818 -0.14942,0.64393 0.0303,1.39644 0.40447,1.94141 0.56301,0.82011 1.52738,1.44869 2.50764,1.6179 0.9281,0.16021 1.95582,-0.14141 2.75036,-0.64711 0.55067,-0.35048 1.0808,-0.8979 1.21342,-1.53702 0.96086,-4.63026 9.57425,-8.43166 10.35433,-7.8466 l 0.0404,-2.42676 -0.0404,-2.42677 c -0.78008,0.58506 -9.39347,-3.21634 -10.35433,-7.8466 -0.13262,-0.63912 -0.66275,-1.18654 -1.21342,-1.53702 -0.69522,-0.44248 -1.56892,-0.72874 -2.39825,-0.68606 z" /><path
       id="path2-3"
       style="fill:#000000;fill-opacity:0.937413;stroke:#fefefe;stroke-width:0"
       d="m -335.90851,-373.99601 c 0.11848,0.006 0.2361,0.0189 0.35211,0.0389 0.98026,0.16921 1.94464,0.79771 2.50764,1.61782 0.37413,0.54497 0.55389,1.29748 0.40448,1.94141 -0.61757,2.66158 -0.70526,8.74408 -0.24272,8.89827 -0.46254,0.15418 -0.37485,6.2366 0.24272,8.89818 0.14941,0.64393 -0.0303,1.39644 -0.40448,1.94141 -0.563,0.82011 -1.52738,1.44869 -2.50764,1.6179 -0.92809,0.16021 -1.95582,-0.14142 -2.75036,-0.64711 -0.55066,-0.35048 -1.08079,-0.8979 -1.21342,-1.53702 -0.96085,-4.63026 -9.57425,-8.43166 -10.35433,-7.8466 l -0.0404,-2.42676 0.0404,-2.42677 c 0.78008,0.58506 9.39348,-3.21634 10.35433,-7.8466 0.13263,-0.63912 0.66276,-1.18654 1.21342,-1.53702 0.69523,-0.44248 1.56893,-0.72874 2.39825,-0.68606 z" /><path
       id="path2-6"
       style="fill:#000000;fill-opacity:0.937413;stroke:#fefefe;stroke-width:0"
       d="m -340.55336,-405.2461 c 0.11848,0.006 0.2361,0.0189 0.35211,0.039 0.98026,0.16921 1.94464,0.79771 2.50764,1.61781 0.37413,0.54498 0.55389,1.29748 0.40448,1.94141 -0.61757,2.66159 -0.70526,8.74409 -0.24272,8.89827 -0.46254,0.15418 -0.37485,6.23661 0.24272,8.89819 0.14941,0.64393 -0.0304,1.39644 -0.40448,1.94141 -0.563,0.8201 -1.52738,1.44868 -2.50764,1.6179 -0.9281,0.16021 -1.95582,-0.14142 -2.75036,-0.64711 -0.55067,-0.35048 -1.08079,-0.8979 -1.21342,-1.53702 -0.96086,-4.63026 -9.57425,-8.43167 -10.35433,-7.8466 l -0.0404,-2.42677 0.0404,-2.42676 c 0.78008,0.58506 9.39347,-3.21635 10.35433,-7.84661 0.13263,-0.63912 0.66275,-1.18654 1.21342,-1.53701 0.69522,-0.44249 1.56893,-0.72874 2.39825,-0.68607 z" /></g></svg>
