<?xml version="1.0" encoding="UTF-8" standalone="no"?>
<!-- Created with Inkscape (http://www.inkscape.org/) -->

<svg
   width="80mm"
   height="100mm"
   viewBox="0 0 80 100"
   version="1.1"
   id="svg1"
   xml:space="preserve"
   inkscape:version="1.4 (86a8ad7, 2024-10-11)"
   sodipodi:docname="eight-string.svg"
   xmlns:inkscape="http://www.inkscape.org/namespaces/inkscape"
   xmlns:sodipodi="http://sodipodi.sourceforge.net/DTD/sodipodi-0.dtd"
   xmlns="http://www.w3.org/2000/svg"
   xmlns:svg="http://www.w3.org/2000/svg"><sodipodi:namedview
     id="namedview1"
     pagecolor="#505050"
     bordercolor="#eeeeee"
     borderopacity="1"
     inkscape:showpageshadow="0"
     inkscape:pageopacity="0"
     inkscape:pagecheckerboard="0"
     inkscape:deskcolor="#505050"
     inkscape:document-units="mm"
     showguides="true"
     inkscape:zoom="2.0334082"
     inkscape:cx="206.30388"
     inkscape:cy="188.10783"
     inkscape:window-width="1920"
     inkscape:window-height="1009"
     inkscape:window-x="-8"
     inkscape:window-y="-8"
     inkscape:window-maximized="1"
     inkscape:current-layer="layer1"><sodipodi:guide
       position="39.999999,116.65512"
       orientation="-1,0"
       id="guide1"
       inkscape:locked="false"
       inkscape:label=""
       inkscape:color="rgb(0,134,229)" /></sodipodi:namedview><defs
     id="defs1" /><g
     inkscape:label="Layer 1"
     inkscape:groupmode="layer"
     id="layer1"
     transform="translate(181.77686,132.12268)"><path
       style="fill:#000000;fill-opacity:0.963839;stroke:#fefefe;stroke-width:0"
       d="m -156.05438,-33.261493 c -0.72033,-7.310138 -3.85621,-11.14791 -9.40766,-11.513315 7.18148,-17.204015 9.98476,-39.541093 8.40985,-67.011232 5.5105,0 9.51125,-3.17043 12.00231,-9.51127 10.71287,3.03818 13.76147,-5.21836 19.19236,-9.96418 -1.90866,38.437764 2.10905,68.100306 10.75679,82.714033 -6.70642,1.184078 -12.06429,5.709938 -12.39861,15.285964 z"
       id="path1"
       sodipodi:nodetypes="cccccccc" /><path
       id="path6"
       style="fill:#000000;fill-opacity:0.963839;stroke:#fefefe;stroke-width:0"
       d="m -120.2337,-119.50322 -3.70811,4.67779 v 1.99668 1.99645 l 3.70811,4.67801 c 0,0 3.49574,0.88381 4.84906,0 1.42589,-0.93122 2.05399,-4.67801 2.05399,-4.67801 v -1.99645 -1.99668 c 0,0 -0.62815,-3.74663 -2.05399,-4.67779 -1.35333,-0.8838 -4.84906,0 -4.84906,0 z"
       sodipodi:nodetypes="cccccscccsc" /><path
       id="path6-4"
       style="fill:#000000;fill-opacity:0.963839;stroke:#fefefe;stroke-width:0"
       d="m -162.31869,-111.96597 3.70811,4.67779 v 1.99667 1.99645 l -3.70811,4.67802 c 0,0 -3.49574,0.883817 -4.84906,0 -1.42588,-0.931208 -2.05399,-4.67802 -2.05399,-4.67802 v -1.99645 -1.99667 c 0,0 0.62815,-3.74663 2.05399,-4.67779 1.35333,-0.8838 4.84906,0 4.84906,0 z"
       sodipodi:nodetypes="cccccscccsc" /><path
       id="path6-4-6"
       style="fill:#000000;fill-opacity:0.963839;stroke:#fefefe;stroke-width:0"
       d="m -162.31869,-96.435954 3.70811,4.677787 v 1.996674 1.996447 l -3.70811,4.678014 c 0,0 -3.49574,0.883817 -4.84906,0 -1.42588,-0.931207 -2.05399,-4.678014 -2.05399,-4.678014 v -1.996447 -1.996674 c 0,0 0.62815,-3.74663 2.05399,-4.677787 1.35333,-0.883806 4.84906,0 4.84906,0 z"
       sodipodi:nodetypes="cccccscccsc" /><path
       id="path6-4-9"
       style="fill:#000000;fill-opacity:0.963839;stroke:#fefefe;stroke-width:0"
       d="m -163.90619,-80.435954 3.7081,4.677787 v 1.996674 1.996447 l -3.7081,4.678014 c 0,0 -3.49575,0.883817 -4.84907,0 -1.42589,-0.931208 -2.05399,-4.678014 -2.05399,-4.678014 v -1.996447 -1.996674 c 0,0 0.62815,-3.74663 2.05399,-4.677787 1.35332,-0.883805 4.84907,0 4.84907,0 z"
       sodipodi:nodetypes="cccccscccsc" /><path
       id="path6-4-8"
       style="fill:#000000;fill-opacity:0.963839;stroke:#fefefe;stroke-width:0"
       d="m -167.6104,-64.435953 3.70812,4.677787 v 1.996673 1.996447 l -3.70812,4.678015 c 0,0 -3.49573,0.883818 -4.84906,0 -1.42589,-0.931208 -2.05399,-4.678015 -2.05399,-4.678015 v -1.996447 -1.996673 c 0,0 0.62815,-3.746628 2.05399,-4.677787 1.35333,-0.883803 4.84906,0 4.84906,0 z"
       sodipodi:nodetypes="cccccscccsc" /><path
       id="path6-5"
       style="fill:#000000;fill-opacity:0.963839;stroke:#fefefe;stroke-width:0"
       d="m -120.2337,-103.50322 -3.70811,4.677779 v 1.996678 1.996448 l 3.70811,4.678014 c 0,0 3.49575,0.883817 4.84906,0 1.42589,-0.931209 2.05399,-4.678014 2.05399,-4.678014 v -1.996448 -1.996678 c 0,0 -0.62815,-3.746619 -2.05399,-4.677779 -1.35332,-0.88379 -4.84906,0 -4.84906,0 z"
       sodipodi:nodetypes="cccccscccsc" /><path
       id="path6-0"
       style="fill:#000000;fill-opacity:0.963839;stroke:#fefefe;stroke-width:0"
       d="m -118.6462,-87.503224 -3.7081,4.677787 v 1.996675 1.996447 l 3.7081,4.678014 c 0,0 3.49575,0.883817 4.84907,0 1.42588,-0.931208 2.05399,-4.678014 2.05399,-4.678014 v -1.996447 -1.996675 c 0,0 -0.62816,-3.746628 -2.05399,-4.677787 -1.35333,-0.883805 -4.84907,0 -4.84907,0 z"
       sodipodi:nodetypes="cccccscccsc" /><path
       id="path6-8"
       style="fill:#000000;fill-opacity:0.963839;stroke:#fefefe;stroke-width:0"
       d="m -115.47116,-71.503223 -3.70812,4.677787 v 1.996674 1.996447 l 3.70812,4.678015 c 0,0 3.49572,0.883815 4.84905,0 1.42588,-0.931208 2.05399,-4.678015 2.05399,-4.678015 v -1.996447 -1.996674 c 0,0 -0.62816,-3.746631 -2.05399,-4.677787 -1.35333,-0.883807 -4.84905,0 -4.84905,0 z"
       sodipodi:nodetypes="cccccscccsc" /></g></svg>
