<?xml version="1.0" encoding="UTF-8" standalone="no"?>
<!-- Created with Inkscape (http://www.inkscape.org/) -->

<svg
   width="100mm"
   height="100mm"
   viewBox="0 0 100 100"
   version="1.1"
   id="svg1"
   xml:space="preserve"
   inkscape:version="1.4 (86a8ad7, 2024-10-11)"
   sodipodi:docname="eight-string.svg"
   xmlns:inkscape="http://www.inkscape.org/namespaces/inkscape"
   xmlns:sodipodi="http://sodipodi.sourceforge.net/DTD/sodipodi-0.dtd"
   xmlns="http://www.w3.org/2000/svg"
   xmlns:svg="http://www.w3.org/2000/svg"><sodipodi:namedview
     id="namedview1"
     pagecolor="#505050"
     bordercolor="#eeeeee"
     borderopacity="1"
     inkscape:showpageshadow="0"
     inkscape:pageopacity="0"
     inkscape:pagecheckerboard="0"
     inkscape:deskcolor="#505050"
     inkscape:document-units="mm"
     showguides="true"
     inkscape:zoom="1.4378367"
     inkscape:cx="279.23894"
     inkscape:cy="246.55095"
     inkscape:window-width="1920"
     inkscape:window-height="1009"
     inkscape:window-x="-8"
     inkscape:window-y="-8"
     inkscape:window-maximized="1"
     inkscape:current-layer="layer1"><sodipodi:guide
       position="0,73.499999"
       orientation="0,1"
       id="guide7"
       inkscape:locked="false"
       inkscape:label=""
       inkscape:color="rgb(0,134,229)" /><sodipodi:guide
       position="0,57.5"
       orientation="0,1"
       id="guide8"
       inkscape:locked="false"
       inkscape:label=""
       inkscape:color="rgb(0,134,229)" /><sodipodi:guide
       position="6.7661444,41.5"
       orientation="0,1"
       id="guide9"
       inkscape:locked="false"
       inkscape:label=""
       inkscape:color="rgb(0,134,229)" /><sodipodi:guide
       position="39.686039,25.5"
       orientation="0,1"
       id="guide10"
       inkscape:locked="false"
       inkscape:label=""
       inkscape:color="rgb(0,134,229)" /></sodipodi:namedview><defs
     id="defs1" /><g
     inkscape:label="Layer 1"
     inkscape:groupmode="layer"
     id="layer1"
     transform="translate(181.77686,132.12268)"><path
       style="fill:#000000;fill-opacity:0.963839;stroke:#fefefe;stroke-width:0"
       d="m -147.87175,-32.12268 c -0.73503,-7.459325 -3.93491,-11.375418 -9.59966,-11.748281 7.32804,-17.555117 10.18853,-40.348054 8.58148,-68.378809 5.62296,0 9.70536,-3.23513 12.24726,-9.70538 10.9315,3.10018 14.04232,-5.32486 19.58404,-10.16753 -1.94761,39.222211 2.15209,69.490111 10.97632,84.402078 -6.84329,1.208242 -12.3105,5.826467 -12.65165,15.597922 z"
       id="path1"
       sodipodi:nodetypes="cccccccc" /><path
       id="path6"
       style="fill:#000000;fill-opacity:0.963839;stroke:#fefefe;stroke-width:0"
       d="m -111.62529,-119.64486 -3.78379,4.77325 v 2.03743 2.03719 l 3.78379,4.77348 c 0,0 3.56708,0.90185 4.94802,0 1.45499,-0.95022 2.09591,-4.77348 2.09591,-4.77348 v -2.03719 -2.03743 c 0,0 -0.64097,-3.82309 -2.09591,-4.77325 -1.38095,-0.90184 -4.94802,0 -4.94802,0 z"
       sodipodi:nodetypes="cccccscccsc" /><path
       id="path6-4"
       style="fill:#000000;fill-opacity:0.963839;stroke:#fefefe;stroke-width:0"
       d="m -153.72394,-112.43337 3.78379,4.77325 v 2.03742 2.03719 l -3.78379,4.773496 c 0,0 -3.56708,0.901854 -4.94802,0 -1.45498,-0.950212 -2.09591,-4.773496 -2.09591,-4.773496 v -2.03719 -2.03742 c 0,0 0.64097,-3.82309 2.09591,-4.77325 1.38095,-0.90184 4.94802,0 4.94802,0 z"
       sodipodi:nodetypes="cccccscccsc" /><path
       id="path6-4-6"
       style="fill:#000000;fill-opacity:0.963839;stroke:#fefefe;stroke-width:0"
       d="m -153.72394,-96.433363 3.78379,4.773252 v 2.037423 2.037191 l -3.78379,4.773483 c 0,0 -3.56708,0.901854 -4.94802,0 -1.45498,-0.950211 -2.09591,-4.773483 -2.09591,-4.773483 v -2.037191 -2.037423 c 0,0 0.64097,-3.823091 2.09591,-4.773252 1.38095,-0.901843 4.94802,0 4.94802,0 z"
       sodipodi:nodetypes="cccccscccsc" /><path
       id="path6-4-9"
       style="fill:#000000;fill-opacity:0.963839;stroke:#fefefe;stroke-width:0"
       d="m -156.7456,-80.433358 3.78378,4.773252 v 2.037423 2.037191 l -3.78378,4.773483 c 0,0 -3.56709,0.901854 -4.94803,0 -1.45499,-0.950212 -2.09591,-4.773483 -2.09591,-4.773483 v -2.037191 -2.037423 c 0,0 0.64097,-3.823091 2.09591,-4.773252 1.38094,-0.901841 4.94803,0 4.94803,0 z"
       sodipodi:nodetypes="cccccscccsc" /><path
       id="path6-4-8"
       style="fill:#000000;fill-opacity:0.963839;stroke:#fefefe;stroke-width:0"
       d="m -159.1378,-64.433349 3.78379,4.773252 v 2.037421 2.037191 l -3.78379,4.773485 c 0,0 -3.56708,0.901855 -4.94802,0 -1.45499,-0.950213 -2.09591,-4.773485 -2.09591,-4.773485 v -2.037191 -2.037421 c 0,0 0.64097,-3.82309 2.09591,-4.773252 1.38094,-0.90184 4.94802,0 4.94802,0 z"
       sodipodi:nodetypes="cccccscccsc" /><path
       id="path6-5"
       style="fill:#000000;fill-opacity:0.963839;stroke:#fefefe;stroke-width:0"
       d="m -111.62529,-103.64486 -3.78379,4.773248 v 2.037427 2.037192 l 3.78379,4.773483 c 0,0 3.56709,0.901854 4.94802,0 1.45499,-0.950213 2.09591,-4.773483 2.09591,-4.773483 v -2.037192 -2.037427 c 0,0 -0.64097,-3.823088 -2.09591,-4.773248 -1.38094,-0.90183 -4.94802,0 -4.94802,0 z"
       sodipodi:nodetypes="cccccscccsc" /><path
       id="path6-0"
       style="fill:#000000;fill-opacity:0.963839;stroke:#fefefe;stroke-width:0"
       d="m -109.73467,-87.644853 -3.78378,4.773252 v 2.037423 2.037191 l 3.78378,4.773484 c 0,0 3.56709,0.901854 4.94803,0 1.45498,-0.950213 2.09591,-4.773484 2.09591,-4.773484 v -2.037191 -2.037423 c 0,0 -0.64098,-3.82309 -2.09591,-4.773252 -1.38095,-0.901842 -4.94803,0 -4.94803,0 z"
       sodipodi:nodetypes="cccccscccsc" /><path
       id="path6-8"
       style="fill:#000000;fill-opacity:0.963839;stroke:#fefefe;stroke-width:0"
       d="m -106.21143,-71.644853 -3.78379,4.773252 v 2.037422 2.037191 l 3.78379,4.773485 c 0,0 3.56707,0.901852 4.94801,0 1.454994,-0.950213 2.095914,-4.773485 2.095914,-4.773485 v -2.037191 -2.037422 c 0,0 -0.64097,-3.823093 -2.095914,-4.773252 -1.38094,-0.901844 -4.94801,0 -4.94801,0 z"
       sodipodi:nodetypes="cccccscccsc" /></g></svg>
