<svg width="80mm" height="100mm" version="1.1" viewBox="0 0 80 100" xml:space="preserve" xmlns="http://www.w3.org/2000/svg"><g stroke="#fff" style="stroke-width:0"><g stroke-width=".36684" style="stroke-width:0"><path d="m12.482 15.579c-1.2075-0.01828-2.4774 0.12683-3.1755 0.69892-2.8261 2.3159-2.8262 10.93 0 13.246 1.5957 1.3076 6.1772 0.38201 6.1772 0.38201l2.3564-7.0049-2.3564-7.0049s-1.4492-0.2934-3.0017-0.31691z" style="stroke-width:0"/><path d="m12.482 40.13c-1.2075-0.01828-2.4774 0.12683-3.1755 0.69892-2.8261 2.3159-2.8262 10.93 0 13.246 1.5957 1.3076 6.1772 0.38201 6.1772 0.38201l2.3564-7.0049-2.3564-7.0049s-1.4492-0.2934-3.0017-0.31691z" style="stroke-width:0"/><path d="m12.482 64.681c-1.2075-0.01829-2.4774 0.12683-3.1755 0.69892-2.8261 2.3159-2.8262 10.93 0 13.246 1.5957 1.3076 6.1772 0.38201 6.1772 0.38201l2.3564-7.0049-2.3564-7.0049s-1.4492-0.2934-3.0017-0.31691z" style="stroke-width:0"/><path d="m67.518 15.579c1.2075-0.01828 2.4774 0.12683 3.1755 0.69892 2.8261 2.3159 2.8262 10.93 0 13.246-1.5957 1.3076-6.1772 0.38201-6.1772 0.38201l-2.3564-7.0049 2.3564-7.0049s1.4492-0.2934 3.0017-0.31691z" style="stroke-width:0"/><path d="m67.518 40.13c1.2075-0.01828 2.4774 0.12683 3.1755 0.69892 2.8261 2.3159 2.8262 10.93 0 13.246-1.5957 1.3076-6.1772 0.38201-6.1772 0.38201l-2.3564-7.0049 2.3564-7.0049s1.4492-0.2934 3.0017-0.31691z" style="stroke-width:0"/><path d="m67.518 64.681c1.2075-0.01829 2.4774 0.12683 3.1755 0.69892 2.8261 2.3159 2.8262 10.93 0 13.246-1.5957 1.3076-6.1772 0.38201-6.1772 0.38201l-2.3564-7.0049 2.3564-7.0049s1.4492-0.2934 3.0017-0.31691z" style="stroke-width:0"/></g><path d="m32.398 1.1892c-4.7389 4.8812-9.5914 7.7704-14.558 8.667 4.5297 28.264 4.048 50.125 2.86 71.083 7.0448 8.6571 5.02 11.925 7.2786 17.89h24.043c2.2586-5.9649 0.23387-9.2329 7.2786-17.89-1.1879-20.958-1.6697-42.819 2.86-71.083-4.9666-0.89655-9.8191-3.7857-14.558-8.667-5.2721 1.2943-9.928 1.2954-15.204 0z" stroke-width=".34779" style="stroke-width:0"/></g></svg>
