<?xml version="1.0" encoding="UTF-8" standalone="no"?>
<!-- Created with Inkscape (http://www.inkscape.org/) -->

<svg
   width="80mm"
   height="100mm"
   viewBox="0 0 80 100"
   version="1.1"
   id="svg1"
   xml:space="preserve"
   inkscape:version="1.4 (86a8ad7, 2024-10-11)"
   sodipodi:docname="ukulele.svg"
   xmlns:inkscape="http://www.inkscape.org/namespaces/inkscape"
   xmlns:sodipodi="http://sodipodi.sourceforge.net/DTD/sodipodi-0.dtd"
   xmlns="http://www.w3.org/2000/svg"
   xmlns:svg="http://www.w3.org/2000/svg"><sodipodi:namedview
     id="namedview1"
     pagecolor="#505050"
     bordercolor="#eeeeee"
     borderopacity="1"
     inkscape:showpageshadow="0"
     inkscape:pageopacity="0"
     inkscape:pagecheckerboard="0"
     inkscape:deskcolor="#505050"
     inkscape:document-units="mm"
     showguides="true"
     inkscape:zoom="1.4142136"
     inkscape:cx="-10.253048"
     inkscape:cy="234.40589"
     inkscape:window-width="1920"
     inkscape:window-height="1009"
     inkscape:window-x="-8"
     inkscape:window-y="-8"
     inkscape:window-maximized="1"
     inkscape:current-layer="layer1"><sodipodi:guide
       position="23.5,116.40417"
       orientation="-1,0"
       id="guide2"
       inkscape:locked="false"
       inkscape:label=""
       inkscape:color="rgb(0,134,229)" /><sodipodi:guide
       position="76.499999,99.999999"
       orientation="-1,0"
       id="guide3"
       inkscape:locked="false"
       inkscape:label=""
       inkscape:color="rgb(0,134,229)" /></sodipodi:namedview><defs
     id="defs1"><inkscape:path-effect
       effect="fillet_chamfer"
       id="path-effect2"
       is_visible="true"
       lpeversion="1"
       nodesatellites_param="F,0,0,1,0,0,0,1 @ F,0,0,1,0,0,0,1 @ F,0,0,1,0,0,0,1 @ F,0,0,1,0,0,0,1 @ F,0,0,1,0,0,0,1"
       radius="0"
       unit="px"
       method="auto"
       mode="F"
       chamfer_steps="1"
       flexible="false"
       use_knot_distance="true"
       apply_no_radius="true"
       apply_with_radius="true"
       only_selected="false"
       hide_knots="false" /></defs><g
     inkscape:label="Layer 1"
     inkscape:groupmode="layer"
     id="layer1"
     transform="translate(274.61065,283.01477)"><path
       id="path1"
       style="fill:#000000;stroke:#fefefe;stroke-width:0;stroke-opacity:1"
       d="m -234.61065,-283.01477 c -9.83246,4.18413 -18.24418,5.94729 -25.01347,5.44472 -0.0719,25.46271 1.00623,48.01436 3.23444,67.65497 5.66932,13.80291 7.45248,18.81423 6.90033,20.43129 l 0.16168,6.46902 h 14.71702 14.71695 l 0.16176,-6.46902 c -0.55215,-1.61706 1.23093,-6.62838 6.90026,-20.43129 2.22821,-19.64061 3.30639,-42.19226 3.23451,-67.65497 -6.76929,0.50257 -15.18101,-1.26059 -25.01348,-5.44472 z" /><path
       id="path2"
       style="fill:#000000;fill-opacity:1;stroke:#bababa;stroke-width:0"
       d="m -202.44844,-269.01405 c -1.49875,-0.0128 -3.16809,0.1366 -4.14117,1.18854 -2.11228,2.28344 -1.52104,9.20702 -1.52104,9.20702 0,0 -0.59124,6.92358 1.52104,9.20702 1.11208,1.20222 3.13358,1.22552 4.77053,1.17533 1.54455,-0.0473 3.37458,-0.2492 4.42473,-1.3828 2.09215,-2.25834 2.0742,-8.99955 2.0742,-8.99955 0,0 0.018,-6.74121 -2.0742,-8.99958 -1.05015,-1.13358 -2.88018,-1.33541 -4.42473,-1.38277 -0.20462,-0.006 -0.41526,-0.0115 -0.62936,-0.0133 z" /><path
       id="path2-2"
       style="fill:#000000;fill-opacity:1;stroke:#bababa;stroke-width:0"
       d="m -202.44845,-243.01405 c -1.49874,-0.0128 -3.16809,0.13661 -4.14119,1.18853 -2.11225,2.28345 -1.52101,9.20702 -1.52101,9.20702 0,0 -0.59124,6.92359 1.52101,9.20702 1.11211,1.20224 3.1336,1.22554 4.77055,1.17534 1.54453,-0.0473 3.37459,-0.24919 4.42474,-1.3828 2.09214,-2.25834 2.07418,-8.99956 2.07418,-8.99956 0,0 0.018,-6.7412 -2.07418,-8.99956 -1.05015,-1.13359 -2.88021,-1.33541 -4.42474,-1.38279 -0.20462,-0.006 -0.41526,-0.0115 -0.62936,-0.0132 z" /><path
       id="path2-2-5"
       style="fill:#000000;fill-opacity:1;stroke:#bababa;stroke-width:0"
       d="m -266.77237,-243.01405 c 1.49875,-0.0128 3.16808,0.13659 4.14117,1.18853 2.11228,2.28345 1.52104,9.20702 1.52104,9.20702 0,0 0.59124,6.92359 -1.52104,9.20703 -1.11208,1.20222 -3.13359,1.22553 -4.77052,1.17532 -1.54455,-0.0473 -3.37459,-0.24918 -4.42474,-1.38278 -2.09215,-2.25836 -2.07418,-8.99957 -2.07418,-8.99957 0,0 -0.018,-6.74121 2.07418,-8.99956 1.05015,-1.13359 2.88019,-1.33541 4.42474,-1.3828 0.20462,-0.006 0.41525,-0.0116 0.62935,-0.0132 z" /><path
       id="path2-2-5-8"
       style="fill:#000000;fill-opacity:1;stroke:#bababa;stroke-width:0"
       d="m -266.77286,-269.01405 c 1.49875,-0.0128 3.16808,0.1366 4.14117,1.18853 2.11228,2.28345 1.52104,9.20702 1.52104,9.20702 0,0 0.59124,6.92359 -1.52104,9.20702 -1.11208,1.20223 -3.13359,1.22554 -4.77052,1.17533 -1.54455,-0.0473 -3.37459,-0.24918 -4.42474,-1.3828 -2.09215,-2.25834 -2.07418,-8.99955 -2.07418,-8.99955 0,0 -0.018,-6.7412 2.07418,-8.99956 1.05015,-1.13359 2.88019,-1.33541 4.42474,-1.3828 0.20462,-0.006 0.41525,-0.0116 0.62935,-0.0132 z" /></g></svg>
