<svg viewBox="0 0 16.797 24.251">
 <g transform="translate(-44.715 -29.898)">
  <path d="m47.932 29.902c-0.11492 6e-3 -0.22901 0.0183-0.34155 0.0377-0.95085 0.16414-1.8863 0.77377-2.4324 1.5693-0.36291 0.52862-0.53726 1.2586-0.39233 1.8832 0.59903 2.5817 0.23542 8.1584 0.23542 8.6313s0.36361 6.0495-0.23542 8.6312c-0.14493 0.62461 0.0294 1.3545 0.39233 1.8832 0.54612 0.7955 1.4816 1.4052 2.4324 1.5694 0.90026 0.1554 1.8972-0.13717 2.6678-0.6277 0.53415-0.33997 1.0484-0.87096 1.177-1.4909 0.46602-2.2457 2.7878-4.2904 5.0876-5.7027 2.2998-1.4123 4.1849-1.9085 4.9561-1.9085 0.0573-1.5696 0.0261-3.1383 0-4.7079-0.77116 0-2.6563-0.4962-4.9561-1.9085-2.2998-1.4123-4.6216-3.457-5.0876-5.7027-0.12864-0.61994-0.64287-1.1509-1.177-1.4909-0.67436-0.4292-1.5218-0.70688-2.3263-0.66548z"/>
 </g>
</svg>
