<svg viewBox="0 0 17.323 25.001">
 <g transform="translate(-41.804 -104.77)">
  <path d="m45.121 104.78c-0.11847 6e-3 -0.23609 0.0189-0.35211 0.0389-0.98026 0.16922-1.9446 0.79771-2.5076 1.6178-0.37413 0.54497-0.55388 1.2975-0.40447 1.9414 0.61756 2.6616 0.70526 8.7441 0.24271 8.8983 0.46255 0.15418 0.37485 6.2366-0.24271 8.8982-0.14941 0.64393 0.0303 1.3964 0.40447 1.9414 0.56301 0.8201 1.5274 1.4487 2.5076 1.6179 0.9281 0.16021 1.9558-0.14141 2.7504-0.64711 0.55067-0.35048 1.0808-0.8979 1.2134-1.537 0.96086-4.6302 9.5742-8.4317 10.354-7.8466l0.0404-2.4268-0.0404-2.4268c-0.78008 0.58506-9.3935-3.2163-10.354-7.8466-0.13262-0.63912-0.66275-1.1865-1.2134-1.537-0.69522-0.44248-1.5689-0.72874-2.3982-0.68606z"/>
 </g>
</svg>
