<svg
   width="100px"
   height="100px"
   viewBox="0 0 512 512">
  <path d="M 152.6,26.32 137.2,441.9 256,486.4 374.8,441.9 359.4,26.32 256,41.09 Z M 192,112 a 16,16 0 0 1 16,16 16,16 0 0 1 -16,16 16,16 0 0 1 -16,-16 16,16 0 0 1 16,-16 z m 128,0 a 16,16 0 0 1 16,16 16,16 0 0 1 -16,16 16,16 0 0 1 -16,-16 16,16 0 0 1 16,-16 z m -217.6,7 2.1,6.2 1,2.8 -3,9 h 28 l 0.7,-18 z m 278.4,0 0.7,18 h 28.1 l -2.1,-6.2 -1,-2.8 3,-9 z M 192,240 a 16,16 0 0 1 16,16 16,16 0 0 1 -16,16 16,16 0 0 1 -16,-16 16,16 0 0 1 16,-16 z m 128,0 a 16,16 0 0 1 16,16 16,16 0 0 1 -16,16 16,16 0 0 1 -16,-16 16,16 0 0 1 16,-16 z m -221.56,7 2.06,6.2 1,2.8 -3,9 h 27.3 l 0.7,-18 z m 287.06,0 0.7,18 h 27.4 l -2.1,-6.2 -1,-2.8 3,-9 z M 192,368 a 16,16 0 0 1 16,16 16,16 0 0 1 -16,16 16,16 0 0 1 -16,-16 16,16 0 0 1 16,-16 z m 128,0 a 16,16 0 0 1 16,16 16,16 0 0 1 -16,16 16,16 0 0 1 -16,-16 16,16 0 0 1 16,-16 z m -225.53,7 2.07,6.2 0.95,2.8 -3,9 h 26.61 l 0.6,-18 z m 295.83,0 0.6,18 h 26.7 l -2.1,-6.2 -1,-2.8 3,-9 z"/>
</svg>
