<svg viewBox="0 0 100 100">
 <g transform="translate(-22.338 -1.3258)">
  <path d="m72.338 1.3258c-10.172 0-18.361 8.1889-18.361 18.361v2.6722l36.535 36.535c0.10971-0.81496 0.18604-1.6407 0.18604-2.4867v-36.721c0-10.172-8.1889-18.361-18.361-18.361zm-27.662 36.721 0.12144 18.361a27.541 27.541 0 0 0 13.77 23.851 27.541 27.541 0 0 0 11.476 3.5393v12.938h-6.8854c-1.2715 0-2.295 1.024-2.295 2.2955 0 1.2715 1.0235 2.295 2.295 2.295h18.361c1.2715 0 2.295-1.0235 2.295-2.295 0-1.2715-1.0235-2.2955-2.295-2.2955h-6.8854v-12.938a27.541 27.541 0 0 0 11.475-3.5393 27.541 27.541 0 0 0 2.742-1.8138l-3.2856-3.2856a22.951 22.951 0 0 1-1.7513 1.1245 22.951 22.951 0 0 1-22.951 0 22.951 22.951 0 0 1-11.475-19.876l-0.11627-17.542-0.81907-0.81907h-3.7765zm50.734 0-0.12144 18.361a22.951 22.951 0 0 1-0.90227 6.3603l3.6174 3.6174a27.541 27.541 0 0 0 1.8748-9.9777l0.12196-18.361h-4.5904zm-41.433 5.5252v12.835c0 10.172 8.1889 18.361 18.361 18.361 3.6649 0 7.0636-1.0761 9.9234-2.912l-28.284-28.284z" style="stroke:none"/>
  <rect transform="rotate(-45)" x="12.358" y="17.664" width="5" height="139.34" rx="2.5" ry="2.9029" style="stroke:none"/>
 </g>
</svg>
