<svg viewBox="0 0 100 100">
 <g transform="translate(-22.338 -1.3258)">
  <path d="m72.338 1.3258c-10.172 0-18.361 8.1889-18.361 18.361v36.721c0 10.172 8.1889 18.361 18.361 18.361 10.172 0 18.361-8.1889 18.361-18.361v-36.721c0-10.172-8.1889-18.361-18.361-18.361zm-27.662 36.721 0.12144 18.361a27.541 27.541 0 0 0 13.77 23.851 27.541 27.541 0 0 0 11.476 3.5393v12.938h-6.8854c-1.2715 0-2.295 1.024-2.295 2.2955 0 1.2715 1.0235 2.295 2.295 2.295h18.361c1.2715 0 2.295-1.0235 2.295-2.295 0-1.2715-1.0235-2.2955-2.295-2.2955h-6.8854v-12.938a27.541 27.541 0 0 0 11.475-3.5393 27.541 27.541 0 0 0 13.77-23.851l0.12196-18.361h-4.5904l-0.12144 18.361a22.951 22.951 0 0 1-11.475 19.876 22.951 22.951 0 0 1-22.951 0 22.951 22.951 0 0 1-11.475-19.876l-0.12196-18.361z" 
        style="stroke:none"/>
 </g>
</svg>
