<?xml version="1.0" encoding="UTF-8" standalone="no"?>
<!-- Created with Inkscape (http://www.inkscape.org/) -->
<!-- 0.264583 -->
<svg
   width="122.96166mm"
   height="173.05716mm"
   viewBox="0 0 122.96166 173.05716"
   version="1.1"
   id="svg1"
   xml:space="preserve"
   xmlns="http://www.w3.org/2000/svg"
   xmlns:svg="http://www.w3.org/2000/svg"><defs
     id="defs1" /><g
     id="layer1"
     transform="translate(-2.5579355,45.241952)"><path
       style="fill:#e9ddaf;stroke-width:0.264583" 
       d="M 125.5196,64.96813 V 16.824408 l -22.12008,-59.724233 -1.17107,-1.4313 -2.08189,-0.910827 h -3.122829 l -57.642345,4.814373 -6.63602,1.561417 -3.12284,1.561417 -4.55414,3.383074 -3.6433,5.204724 -4.554141,8.067326 -4.293899,10.149218 -4.1637905,11.9708719 -3.51319,11.3202801 -1.17107,9.888974 -0.52047,3.38307 0.78071,5.20474 -1.04094,4.16378 -0.39036,2.73248 0.78071,5.595086 -0.39035,1.69153 0.52047,8.717921 1.4313,4.03366 0.13012,10.40945 2.47224,8.71792 4.4240295,13.92264 5.07461,11.19017 5.595081,10.53957 3.77342,5.07461 3.90355,3.77342 5.33484,2.47225 5.204729,1.95177 h 6.766151 l 52.697844,1.4313 3.25295,0.13012 3.25296,-1.56142 1.17106,-1.95177 4.2939,-12.62147 z"
       id="path7" /></g><g
     id="layer2"
     transform="translate(-0.6195138,47.09808)" /></svg>
